<svg xmlns="http://www.w3.org/2000/svg" width="30" height="22" viewBox="0 0 30 22">
    <g fill="none" fill-rule="evenodd" opacity=".5">
        <g fill="#FFF" fill-rule="nonzero" stroke="#AE6217" stroke-width=".5">
            <g>
                <g>
                    <g>
                        <g>
                            <path d="M24.222 0C26.305 0 28 1.686 28 3.757h0v12.397c0 2.072-1.695 3.757-3.778 3.757h0H3.778C1.695 19.911 0 18.226 0 16.154h0V3.757C0 1.686 1.695 0 3.778 0h0zM25.7 6.934H2.3v9.22c0 .81.663 1.47 1.478 1.47h20.444c.815 0 1.478-.66 1.478-1.47h0v-9.22zm-15.106 5.51c.678 0 1.228.558 1.228 1.245s-.55 1.244-1.228 1.244h0H4.34c-.679 0-1.229-.557-1.229-1.244 0-.687.55-1.245 1.229-1.245h0zm0-3.11c.678 0 1.228.556 1.228 1.244 0 .687-.55 1.244-1.228 1.244h0H4.34c-.679 0-1.229-.557-1.229-1.244 0-.688.55-1.245 1.229-1.245h0zm13.628-7.047H3.778c-.815 0-1.478.66-1.478 1.47h0v.89h23.4v-.89c0-.81-.663-1.47-1.478-1.47h0z" transform="translate(-341 -251) translate(22 61) translate(10 174) translate(184) translate(126 17)"/>
                        </g>
                    </g>
                </g>
            </g>
        </g>
    </g>
</svg>
