<svg xmlns="http://www.w3.org/2000/svg" width="71" height="71" viewBox="0 0 71 71">
    <g fill="none" fill-rule="evenodd">
        <path stroke="#914800" stroke-dasharray="3 2" stroke-width=".5" d="M35 70c19.33 0 35-15.67 35-35S54.33 0 35 0 0 15.67 0 35s15.67 35 35 35z" transform="translate(.5 .5)"/>
        <g>
            <path fill="#914800" d="M28 56c15.464 0 28-12.536 28-28S43.464 0 28 0 0 12.536 0 28s12.536 28 28 28z" transform="translate(.5 .5) translate(7.5 6.5)"/>
            <path fill="#FFF" fill-rule="nonzero" stroke="#914800" stroke-width=".55" d="M40.576 17c2.317 0 4.203 1.885 4.203 4.203h0v13.865c0 2.318-1.886 4.203-4.203 4.203h0-22.74c-2.318 0-4.203-1.885-4.203-4.203h0V21.203c0-2.318 1.885-4.203 4.203-4.203h0zm1.644 7.756H16.191v10.312c0 .907.738 1.645 1.645 1.645h22.74c.907 0 1.644-.738 1.644-1.645h0V24.756zm-16.248 5.91c.706 0 1.279.573 1.279 1.28 0 .706-.573 1.279-1.28 1.279h0-6.51c-.707 0-1.28-.573-1.28-1.28 0-.706.573-1.278 1.28-1.278h0zm0-3.714c.706 0 1.279.572 1.279 1.279 0 .706-.573 1.279-1.28 1.279h0-6.51c-.707 0-1.28-.573-1.28-1.28 0-.706.573-1.278 1.28-1.278h0zm14.604-7.394h-22.74c-.907 0-1.645.738-1.645 1.645h0v.995h26.03v-.995c0-.907-.738-1.645-1.645-1.645h0z" transform="translate(.5 .5) translate(7.5 6.5)"/>
        </g>
    </g>
</svg>
