<?xml version="1.0" encoding="UTF-8"?>
<svg width="166px" height="54px" viewBox="0 0 166 54" version="1.1" xmlns="http://www.w3.org/2000/svg" xmlns:xlink="http://www.w3.org/1999/xlink">
    <!-- Generator: Sketch 59 (86127) - https://sketch.com -->
    <title>Group 62</title>
    <desc>Created with Sketch.</desc>
    <defs>
        <linearGradient x1="100%" y1="55.2910437%" x2="0%" y2="44.7089563%" id="linearGradient-1">
            <stop stop-color="#510AB7" offset="0%"></stop>
            <stop stop-color="#4E0092" offset="100%"></stop>
        </linearGradient>
        <rect id="path-2" x="0" y="0" width="166" height="54" rx="12.705"></rect>
    </defs>
    <g id="Page-1" stroke="none" stroke-width="1" fill="none" fill-rule="evenodd">
        <g id="Group-62">
            <mask id="mask-3" fill="white">
                <use xlink:href="#path-2"></use>
            </mask>
            <use id="Mask" fill="url(#linearGradient-1)" xlink:href="#path-2"></use>
            <path d="M136.263511,15.5576387 C138.849495,13.3243919 142.648126,13.4857057 145.062944,16.0858622 C147.473013,18.6808525 147.631351,22.7710527 145.553575,25.560463 L145.553575,25.560463 L146.538998,26.6214964 L145.500404,27.7397803 L144.514981,26.6787469 C143.261255,27.7614997 141.655456,28.342282 139.937,28.2182918 L139.937,28.2182918 L129.976915,36.5664902 L128.5461,35.025891 L126.847669,36.8612305 C126.331677,37.4167614 126.459463,38.0000741 126.581521,38.2983464 C126.82265,38.8874579 127.487335,39.4620723 128.428253,39.4161559 C134.654493,39.4154277 135.186151,39.4153608 135.211013,39.4153613 L135.211012,40.9968727 L128.476528,40.9968727 C127.050364,41.058077 125.761094,40.215608 125.237464,38.9361684 C124.778902,37.8158284 124.992613,36.6221065 125.808144,35.7439481 L125.808144,35.7439481 L127.507506,33.9076597 L125.938672,32.2184515 L133.797823,21.5957817 C133.690649,19.8654543 134.166543,18.1010191 135.225211,16.6762917 L135.225211,16.6762917 L134.239102,15.6145202 L135.277696,14.4962363 Z M134.19445,23.5978121 L127.904917,32.098995 L130.098239,34.4606075 L138.064319,27.7837463 C136.294601,27.069063 134.862513,25.5415903 134.19445,23.5978121 L134.19445,23.5978121 Z M132.698575,27.8549697 L133.735508,28.9712855 L132.180142,30.645722 L131.143209,29.5294062 L132.698575,27.8549697 Z M136.272079,17.8034848 C134.765621,19.9699393 134.926064,23.0638952 136.754142,25.0322394 C138.595293,27.0146064 141.466274,27.1708594 143.468308,25.5518174 L143.468308,25.5518174 Z M144.024399,17.2041462 C142.183346,15.2218846 139.312414,15.0654735 137.310184,16.684621 L137.310184,16.684621 L144.506902,24.4334807 C146.009395,22.279362 145.867068,19.1882528 144.024399,17.2041462 Z" id="Combined-Shape" stroke="#FFFFFF" stroke-width="0.5" fill="#FFFFFF" fill-rule="nonzero" opacity="0.498930432" mask="url(#mask-3)"></path>
        </g>
    </g>
</svg>