<svg xmlns="http://www.w3.org/2000/svg" width="71" height="71" viewBox="0 0 71 71">
    <g fill="none" fill-rule="evenodd">
        <path stroke="#6DC13E" stroke-dasharray="3 2" stroke-width=".5" d="M35 70c19.33 0 35-15.67 35-35S54.33 0 35 0 0 15.67 0 35s15.67 35 35 35z" transform="translate(.5 .5)"/>
        <path fill="#6DC13E" d="M35 63c15.464 0 28-12.536 28-28S50.464 7 35 7 7 19.536 7 35s12.536 28 28 28z" transform="translate(.5 .5)"/>
        <path fill="#FFF" fill-rule="nonzero" stroke="#FFF" stroke-width=".5" d="M49.431 24.455c-1.66-1.68-3.815-2.57-6.23-2.577h-.027c-2.552 0-5.11 1.008-7.122 2.789-2.351-2.127-4.452-3.164-6.408-3.164-2.668 0-5.143 1.05-6.97 2.955-1.358 1.36-2.29 3.149-2.694 5.172-.088.438.196.865.635.953.438.088.865-.197.953-.636.342-1.711 1.123-3.215 2.257-4.35l.013-.012c1.52-1.588 3.581-2.462 5.806-2.462 1.634 0 3.581 1.07 5.789 3.181.354.344.901.34 1.252-.01 1.778-1.777 4.142-2.796 6.49-2.796h.021c1.972.006 3.728.729 5.079 2.092 1.55 1.621 2.404 3.745 2.404 5.98 0 1.041-.19 2.07-.545 3.028h-6.486c-.724 0-1.436.247-2.004.695l-3.222 2.536c-.396.312-.904.422-1.394.3-.49-.123-.887-.458-1.09-.92l-1.977-4.483c-.447-1.013-1.366-1.72-2.46-1.893-1.093-.173-2.186.217-2.922 1.043l-1.946 2.18c-.307.345-.747.542-1.208.542h-8.442c-.447 0-.81.363-.81.81 0 .447.363.81.81.81h8.442c.922 0 1.803-.395 2.417-1.083l1.945-2.18c.374-.42.907-.61 1.462-.522.555.088 1.003.433 1.23.947l1.976 4.483c.407.924 1.202 1.593 2.181 1.837.263.066.529.098.792.098.717 0 1.416-.24 1.996-.696l3.222-2.537c.284-.224.64-.347 1.002-.347h5.682c-.303.476-.653.92-1.046 1.324L37.199 48.258c-.631.61-1.62.61-2.252 0l-8.614-8.323c-.321-.31-.834-.302-1.145.02-.31.322-.302.834.02 1.145l8.614 8.323c.63.61 1.44.915 2.251.915.81 0 1.62-.306 2.252-.916L49.418 38.7l.016-.016c1.82-1.861 2.865-4.454 2.865-7.113 0-2.657-1.015-5.18-2.859-7.106l-.009-.009z" transform="translate(.5 .5)"/>
    </g>
</svg>
