<?xml version="1.0" encoding="UTF-8"?>
<svg width="166px" height="54px" viewBox="0 0 166 54" version="1.1" xmlns="http://www.w3.org/2000/svg" xmlns:xlink="http://www.w3.org/1999/xlink">
    <!-- Generator: Sketch 59 (86127) - https://sketch.com -->
    <title>Group 66</title>
    <desc>Created with Sketch.</desc>
    <defs>
        <linearGradient x1="100%" y1="55.2910437%" x2="0%" y2="44.7089563%" id="linearGradient-1">
            <stop stop-color="#FBCC37" offset="0%"></stop>
            <stop stop-color="#E4B10F" offset="100%"></stop>
        </linearGradient>
        <rect id="path-2" x="0" y="0" width="166" height="54" rx="12.705"></rect>
    </defs>
    <g id="Page-1" stroke="none" stroke-width="1" fill="none" fill-rule="evenodd">
        <g id="Group-66">
            <mask id="mask-3" fill="white">
                <use xlink:href="#path-2"></use>
            </mask>
            <use id="Mask" fill="url(#linearGradient-1)" xlink:href="#path-2"></use>
            <g id="office-buildings" opacity="0.504627046" mask="url(#mask-3)" fill="#FFFFFF" fill-rule="nonzero">
                <g transform="translate(125.000000, 16.000000)">
                    <path d="M23.2524615,0 L7.4743942,0 C6.86228272,0 6.36678859,0.496022983 6.36678859,1.10711086 L6.36678859,11.0737001 L1.1076056,11.0737001 C0.496012429,11.0737001 0,11.5686865 0,12.1802927 L0,23.2534745 C0,23.8650807 0.496012429,24.3605854 1.1076056,24.3605854 L11.6264899,24.3605854 L23.2524615,24.3605854 C23.8645729,24.3605854 24.3605854,23.8645624 24.3605854,23.2534745 L24.3605854,12.1802927 L24.3605854,1.10711086 C24.3600671,0.496541293 23.8640546,0 23.2524615,0 Z M8.5814815,2.21474003 L22.1458925,2.21474003 L22.1458925,10.3014177 L17.9761746,7.99338186 C17.6413532,7.8093817 17.2370798,7.8093817 16.903295,7.99338186 L11.3403887,11.0737001 L8.5819998,11.0737001 L8.5814815,2.21474003 L8.5814815,2.21474003 Z M2.21417461,13.2874035 L7.4738759,13.2874035 L10.5188843,13.2874035 L10.5188843,22.1458453 L2.21417461,22.1458453 L2.21417461,13.2874035 Z M22.1464108,22.1458453 L12.7335772,22.1458453 L12.7335772,12.8328454 L17.4392165,10.2278177 L22.1453742,12.8328454 L22.1453742,22.1458453 L22.1464108,22.1458453 L22.1464108,22.1458453 Z" id="Shape" stroke="#F8C832" stroke-width="0.576"></path>
                    <path d="M5.43336432,14.3297561 L3.64214612,14.3297561 C3.47722435,14.3297561 3.34360976,14.4633395 3.34360976,14.6282228 L3.34360976,16.4195821 C3.34360976,16.5844654 3.47722435,16.7180488 3.64214612,16.7180488 L5.43336432,16.7180488 C5.59884516,16.7180488 5.73190244,16.5844654 5.73190244,16.4195821 L5.73190244,14.6282228 C5.73245975,14.4633395 5.59884516,14.3297561 5.43336432,14.3297561 Z" id="Path" stroke="none"></path>
                    <path d="M9.25463415,14.3297561 L7.46341463,14.3297561 C7.29793368,14.3297561 7.16487805,14.4633395 7.16487805,14.6282228 L7.16487805,16.4195821 C7.16487805,16.5844654 7.29793368,16.7180488 7.46341463,16.7180488 L9.25463415,16.7180488 C9.41955604,16.7180488 9.55317073,16.5844654 9.55317073,16.4195821 L9.55317073,14.6282228 C9.55317073,14.4633395 9.41955604,14.3297561 9.25463415,14.3297561 Z" id="Path" stroke="none"></path>
                    <path d="M5.43336432,18.6286829 L3.64214612,18.6286829 C3.47722435,18.6286829 3.34360976,18.7622976 3.34360976,18.9272195 L3.34360976,20.7189981 C3.34360976,20.88392 3.47722435,21.0169756 3.64214612,21.0169756 L5.43336432,21.0169756 C5.59884516,21.0169756 5.73190244,20.88392 5.73190244,20.7189981 L5.73190244,18.9272195 C5.73245975,18.7622976 5.59884516,18.6286829 5.43336432,18.6286829 Z" id="Path" stroke="none"></path>
                    <path d="M9.25463415,18.6286829 L7.46341463,18.6286829 C7.29793368,18.6286829 7.16487805,18.7622976 7.16487805,18.9272195 L7.16487805,20.7189981 C7.16487805,20.88392 7.29793368,21.0169756 7.46341463,21.0169756 L9.25463415,21.0169756 C9.41955604,21.0169756 9.55317073,20.88392 9.55317073,20.7189981 L9.55317073,18.9272195 C9.55317073,18.7622976 9.41955604,18.6286829 9.25463415,18.6286829 Z" id="Path" stroke="none"></path>
                    <path d="M16.4195122,14.3297561 L14.6277336,14.3297561 C14.4628117,14.3297561 14.3297561,14.4633395 14.3297561,14.6282228 L14.3297561,16.4195821 C14.3297561,16.5844654 14.4628117,16.7180488 14.6277336,16.7180488 L16.4195122,16.7180488 C16.5844341,16.7180488 16.7180488,16.5844654 16.7180488,16.4195821 L16.7180488,14.6282228 C16.7180488,14.4633395 16.5844341,14.3297561 16.4195122,14.3297561 Z" id="Path" stroke="none"></path>
                    <path d="M18.4496309,16.7180488 L20.2412698,16.7180488 C20.4067895,16.7180488 20.5393171,16.5844654 20.5393171,16.4195821 L20.5393171,14.6282228 C20.5393171,14.4633395 20.4067895,14.3297561 20.2412698,14.3297561 L18.4496309,14.3297561 C18.2841112,14.3297561 18.1510244,14.4633395 18.1510244,14.6282228 L18.1510244,16.4195821 C18.1510244,16.5839064 18.2841112,16.7180488 18.4496309,16.7180488 Z" id="Path" stroke="none"></path>
                    <path d="M16.4195122,18.6286829 L14.6277336,18.6286829 C14.4628117,18.6286829 14.3297561,18.7622976 14.3297561,18.9272195 L14.3297561,20.7189981 C14.3297561,20.88392 14.4628117,21.0169756 14.6277336,21.0169756 L16.4195122,21.0169756 C16.5844341,21.0169756 16.7180488,20.88392 16.7180488,20.7189981 L16.7180488,18.9272195 C16.7180488,18.7622976 16.5844341,18.6286829 16.4195122,18.6286829 Z" id="Path" stroke="none"></path>
                    <path d="M18.4496309,21.0169756 L20.2412698,21.0169756 C20.4067895,21.0169756 20.5393171,20.88392 20.5393171,20.7189981 L20.5393171,18.9272195 C20.5393171,18.7622976 20.4067895,18.6286829 20.2412698,18.6286829 L18.4496309,18.6286829 C18.2841112,18.6286829 18.1510244,18.7622976 18.1510244,18.9272195 L18.1510244,20.7189981 C18.1510244,20.88392 18.2841112,21.0169756 18.4496309,21.0169756 Z" id="Path" stroke="none"></path>
                    <path d="M10.8064653,6.20956098 L12.5982439,6.20956098 C12.7631658,6.20956098 12.8967805,6.07600881 12.8967805,5.91116409 L12.8967805,4.11966518 C12.8967805,3.95482046 12.7631658,3.82126829 12.5982439,3.82126829 L10.8064653,3.82126829 C10.6415434,3.82126829 10.5084878,3.95482046 10.5084878,4.11966518 L10.5084878,5.91060529 C10.5084878,6.07545002 10.6415434,6.20956098 10.8064653,6.20956098 Z" id="Path" stroke="none"></path>
                    <path d="M14.6277472,6.20956098 L16.4195141,6.20956098 C16.584435,6.20956098 16.7180488,6.07600881 16.7180488,5.91116409 L16.7180488,4.11966518 C16.7180488,3.95482046 16.584435,3.82126829 16.4195141,3.82126829 L14.6277472,3.82126829 C14.4628264,3.82126829 14.3297561,3.95482046 14.3297561,4.11966518 L14.3297561,5.91060529 C14.3280944,6.07545002 14.4628264,6.20956098 14.6277472,6.20956098 Z" id="Path" stroke="none"></path>
                    <path d="M12.5982439,10.0308293 C12.7631658,10.0308293 12.8967805,9.89724585 12.8967805,9.73236255 L12.8967805,7.9410033 C12.8967805,7.77612 12.7631658,7.64253659 12.5982439,7.64253659 L10.8064653,7.64253659 C10.6415434,7.64253659 10.5084878,7.77612 10.5084878,7.9410033 L10.5084878,9.73236255 C10.5084878,9.89724585 10.6415434,10.0308293 10.8064653,10.0308293 L12.5982439,10.0308293 Z" id="Path" stroke="none"></path>
                    <path d="M18.4496309,6.20956098 L20.2412698,6.20956098 C20.4067895,6.20956098 20.5393171,6.07600881 20.5393171,5.91116409 L20.5393171,4.11966518 C20.5393171,3.95482046 20.4067895,3.82126829 20.2412698,3.82126829 L18.4496309,3.82126829 C18.2841112,3.82126829 18.1510244,3.95482046 18.1510244,4.11966518 L18.1510244,5.91060529 C18.1510244,6.07545002 18.2841112,6.20956098 18.4496309,6.20956098 Z" id="Path" stroke="none"></path>
                </g>
            </g>
        </g>
    </g>
</svg>