<?xml version="1.0" encoding="UTF-8"?>
<svg width="196px" height="84px" viewBox="0 0 196 84" version="1.1" xmlns="http://www.w3.org/2000/svg" xmlns:xlink="http://www.w3.org/1999/xlink">
    <!-- Generator: Sketch 59 (86127) - https://sketch.com -->
    <title>Group 66</title>
    <desc>Created with Sketch.</desc>
    <defs>
        <linearGradient x1="100%" y1="55.2910437%" x2="0%" y2="44.7089563%" id="linearGradient-1">
            <stop stop-color="#FBCC37" offset="0%"></stop>
            <stop stop-color="#E4B10F" offset="100%"></stop>
        </linearGradient>
        <rect id="path-2" x="0" y="0" width="166" height="54" rx="12.705"></rect>
        <filter x="-13.6%" y="-41.7%" width="127.1%" height="183.3%" filterUnits="objectBoundingBox" id="filter-4">
            <feOffset dx="5" dy="5" in="SourceAlpha" result="shadowOffsetOuter1"></feOffset>
            <feGaussianBlur stdDeviation="5" in="shadowOffsetOuter1" result="shadowBlurOuter1"></feGaussianBlur>
            <feColorMatrix values="0 0 0 0 0.44211121   0 0 0 0 0.467092708   0 0 0 0 0.560773324  0 0 0 0.3 0" type="matrix" in="shadowBlurOuter1" result="shadowMatrixOuter1"></feColorMatrix>
            <feOffset dx="-5" dy="-5" in="SourceAlpha" result="shadowOffsetOuter2"></feOffset>
            <feGaussianBlur stdDeviation="5" in="shadowOffsetOuter2" result="shadowBlurOuter2"></feGaussianBlur>
            <feColorMatrix values="0 0 0 0 1   0 0 0 0 1   0 0 0 0 1  0 0 0 1 0" type="matrix" in="shadowBlurOuter2" result="shadowMatrixOuter2"></feColorMatrix>
            <feMerge>
                <feMergeNode in="shadowMatrixOuter1"></feMergeNode>
                <feMergeNode in="shadowMatrixOuter2"></feMergeNode>
            </feMerge>
        </filter>
    </defs>
    <g id="Page-1" stroke="none" stroke-width="1" fill="none" fill-rule="evenodd">
        <g id="Group-66" transform="translate(15.000000, 15.000000)">
            <mask id="mask-3" fill="white">
                <use xlink:href="#path-2"></use>
            </mask>
            <g id="Mask">
                <use fill="black" fill-opacity="1" filter="url(#filter-4)" xlink:href="#path-2"></use>
                <use fill="url(#linearGradient-1)" fill-rule="evenodd" xlink:href="#path-2"></use>
            </g>
            <g id="office-buildings" opacity="0.5" mask="url(#mask-3)" fill="#FFFFFF" fill-rule="nonzero">
                <g transform="translate(116.000000, 12.000000)">
                    <path d="M32.2950854,0 L10.381103,0 C9.53094823,0 8.84276193,0.68892081 8.84276193,1.53765397 L8.84276193,15.3801391 L1.53834111,15.3801391 C0.688906152,15.3801391 0,16.0676201 0,16.9170732 L0,32.2964924 C0,33.1459454 0.688906152,33.8341463 1.53834111,33.8341463 L16.1479026,33.8341463 L32.2950854,33.8341463 C33.1452402,33.8341463 33.8341463,33.1452255 33.8341463,32.2964924 L33.8341463,16.9170732 L33.8341463,1.53765397 C33.8334265,0.689640685 33.1445203,0 32.2950854,0 Z M11.9187243,3.07602782 L30.758184,3.07602782 L30.758184,14.3075246 L24.9669092,11.1019193 C24.5018795,10.8463635 23.9403886,10.8463635 23.4767987,11.1019193 L15.7505398,15.3801391 L11.9194442,15.3801391 L11.9187243,3.07602782 L11.9187243,3.07602782 Z M3.07524251,18.4547271 L10.3803832,18.4547271 L14.6095615,18.4547271 L14.6095615,30.7581185 L3.07524251,30.7581185 L3.07524251,18.4547271 Z M30.7589038,30.7581185 L17.6855239,30.7581185 L17.6855239,17.8233964 L24.2211341,14.2053023 L30.7574641,17.8233964 L30.7574641,30.7581185 L30.7589038,30.7581185 L30.7589038,30.7581185 Z" id="Shape" stroke="#F8C832" stroke-width="0.8"></path>
                    <path d="M7.54633934,19.902439 L5.05853628,19.902439 C4.82947826,19.902439 4.64390244,20.0879716 4.64390244,20.3169761 L4.64390244,22.8049751 C4.64390244,23.0339797 4.82947826,23.2195122 5.05853628,23.2195122 L7.54633934,23.2195122 C7.77617383,23.2195122 7.96097561,23.0339797 7.96097561,22.8049751 L7.96097561,20.3169761 C7.96174965,20.0879716 7.77617383,19.902439 7.54633934,19.902439 Z" id="Path" stroke="none"></path>
                    <path d="M12.8536585,19.902439 L10.3658537,19.902439 C10.136019,19.902439 9.95121951,20.0879716 9.95121951,20.3169761 L9.95121951,22.8049751 C9.95121951,23.0339797 10.136019,23.2195122 10.3658537,23.2195122 L12.8536585,23.2195122 C13.0827167,23.2195122 13.2682927,23.0339797 13.2682927,22.8049751 L13.2682927,20.3169761 C13.2682927,20.0879716 13.0827167,19.902439 12.8536585,19.902439 Z" id="Path" stroke="none"></path>
                    <path d="M7.54633934,25.8731707 L5.05853628,25.8731707 C4.82947826,25.8731707 4.64390244,26.0587467 4.64390244,26.2878049 L4.64390244,28.7763862 C4.64390244,29.0054444 4.82947826,29.1902439 5.05853628,29.1902439 L7.54633934,29.1902439 C7.77617383,29.1902439 7.96097561,29.0054444 7.96097561,28.7763862 L7.96097561,26.2878049 C7.96174965,26.0587467 7.77617383,25.8731707 7.54633934,25.8731707 Z" id="Path" stroke="none"></path>
                    <path d="M12.8536585,25.8731707 L10.3658537,25.8731707 C10.136019,25.8731707 9.95121951,26.0587467 9.95121951,26.2878049 L9.95121951,28.7763862 C9.95121951,29.0054444 10.136019,29.1902439 10.3658537,29.1902439 L12.8536585,29.1902439 C13.0827167,29.1902439 13.2682927,29.0054444 13.2682927,28.7763862 L13.2682927,26.2878049 C13.2682927,26.0587467 13.0827167,25.8731707 12.8536585,25.8731707 Z" id="Path" stroke="none"></path>
                    <path d="M22.804878,19.902439 L20.3162967,19.902439 C20.0872385,19.902439 19.902439,20.0879716 19.902439,20.3169761 L19.902439,22.8049751 C19.902439,23.0339797 20.0872385,23.2195122 20.3162967,23.2195122 L22.804878,23.2195122 C23.0339362,23.2195122 23.2195122,23.0339797 23.2195122,22.8049751 L23.2195122,20.3169761 C23.2195122,20.0879716 23.0339362,19.902439 22.804878,19.902439 Z" id="Path" stroke="none"></path>
                    <path d="M25.6244873,23.2195122 L28.1128747,23.2195122 C28.3427632,23.2195122 28.5268293,23.0339797 28.5268293,22.8049751 L28.5268293,20.3169761 C28.5268293,20.0879716 28.3427632,19.902439 28.1128747,19.902439 L25.6244873,19.902439 C25.3945989,19.902439 25.2097561,20.0879716 25.2097561,20.3169761 L25.2097561,22.8049751 C25.2097561,23.0332034 25.3945989,23.2195122 25.6244873,23.2195122 Z" id="Path" stroke="none"></path>
                    <path d="M22.804878,25.8731707 L20.3162967,25.8731707 C20.0872385,25.8731707 19.902439,26.0587467 19.902439,26.2878049 L19.902439,28.7763862 C19.902439,29.0054444 20.0872385,29.1902439 20.3162967,29.1902439 L22.804878,29.1902439 C23.0339362,29.1902439 23.2195122,29.0054444 23.2195122,28.7763862 L23.2195122,26.2878049 C23.2195122,26.0587467 23.0339362,25.8731707 22.804878,25.8731707 Z" id="Path" stroke="none"></path>
                    <path d="M25.6244873,29.1902439 L28.1128747,29.1902439 C28.3427632,29.1902439 28.5268293,29.0054444 28.5268293,28.7763862 L28.5268293,26.2878049 C28.5268293,26.0587467 28.3427632,25.8731707 28.1128747,25.8731707 L25.6244873,25.8731707 C25.3945989,25.8731707 25.2097561,26.0587467 25.2097561,26.2878049 L25.2097561,28.7763862 C25.2097561,29.0054444 25.3945989,29.1902439 25.6244873,29.1902439 Z" id="Path" stroke="none"></path>
                    <path d="M15.0089796,8.62439024 L17.497561,8.62439024 C17.7266192,8.62439024 17.9121951,8.43890113 17.9121951,8.20995012 L17.9121951,5.72175719 C17.9121951,5.49280619 17.7266192,5.30731707 17.497561,5.30731707 L15.0089796,5.30731707 C14.7799214,5.30731707 14.595122,5.49280619 14.595122,5.72175719 L14.595122,8.20917402 C14.595122,8.43812502 14.7799214,8.62439024 15.0089796,8.62439024 Z" id="Path" stroke="none"></path>
                    <path d="M20.3163155,8.62439024 L22.8048807,8.62439024 C23.0339374,8.62439024 23.2195122,8.43890113 23.2195122,8.20995012 L23.2195122,5.72175719 C23.2195122,5.49280619 23.0339374,5.30731707 22.8048807,5.30731707 L20.3163155,5.30731707 C20.0872588,5.30731707 19.902439,5.49280619 19.902439,5.72175719 L19.902439,8.20917402 C19.9001311,8.43812502 20.0872588,8.62439024 20.3163155,8.62439024 Z" id="Path" stroke="none"></path>
                    <path d="M17.497561,13.9317073 C17.7266192,13.9317073 17.9121951,13.7461748 17.9121951,13.5171702 L17.9121951,11.0291713 C17.9121951,10.8001667 17.7266192,10.6146341 17.497561,10.6146341 L15.0089796,10.6146341 C14.7799214,10.6146341 14.595122,10.8001667 14.595122,11.0291713 L14.595122,13.5171702 C14.595122,13.7461748 14.7799214,13.9317073 15.0089796,13.9317073 L17.497561,13.9317073 Z" id="Path" stroke="none"></path>
                    <path d="M25.6244873,8.62439024 L28.1128747,8.62439024 C28.3427632,8.62439024 28.5268293,8.43890113 28.5268293,8.20995012 L28.5268293,5.72175719 C28.5268293,5.49280619 28.3427632,5.30731707 28.1128747,5.30731707 L25.6244873,5.30731707 C25.3945989,5.30731707 25.2097561,5.49280619 25.2097561,5.72175719 L25.2097561,8.20917402 C25.2097561,8.43812502 25.3945989,8.62439024 25.6244873,8.62439024 Z" id="Path" stroke="none"></path>
                </g>
            </g>
        </g>
    </g>
</svg>