<svg xmlns="http://www.w3.org/2000/svg" width="72" height="72" viewBox="0 0 72 72">
    <g fill="none" fill-rule="evenodd">
        <path stroke="#B838D3" stroke-dasharray="3 2" stroke-width=".5" d="M35 70c19.33 0 35-15.67 35-35S54.33 0 35 0 0 15.67 0 35s15.67 35 35 35z" transform="translate(1 1)"/>
        <path fill="#B838D3" d="M35 63c15.464 0 28-12.536 28-28S50.464 7 35 7 7 19.536 7 35s12.536 28 28 28z" transform="translate(1 1)"/>
        <g fill="#FFF" fill-rule="nonzero" stroke="#FFF" stroke-width=".5">
            <path d="M15.4 28c-.186 0-.363-.083-.485-.227L.35 10.39c-.169-.2-.197-.486-.071-.715L5.385.331C5.496.127 5.709 0 5.94 0H24.86c.232 0 .445.127.555.33l5.106 9.344c.126.23.097.514-.071.715L15.884 27.773c-.12.144-.297.227-.484.227zM1.6 9.903L15.4 26.376 29.202 9.903l-4.716-8.63H6.315l-4.716 8.63z" transform="translate(1 1) translate(19 22)"/>
            <path d="M29.57 10.8H1.23c-.348 0-.63-.269-.63-.6 0-.331.282-.6.63-.6h28.34c.348 0 .63.269.63.6 0 .331-.282.6-.63.6z" transform="translate(1 1) translate(19 22)"/>
            <path d="M21.567 10.4c-.198 0-.395-.094-.517-.27l-5.887-8.393-5.811 8.35c-.198.286-.594.356-.88.157-.288-.2-.358-.593-.158-.88L14.642.27C14.76.1 14.953 0 15.16 0h0c.207 0 .4.1.518.27l6.407 9.134c.201.287.132.68-.154.88-.11.078-.237.116-.364.116h0z" transform="translate(1 1) translate(19 22)"/>
            <path d="M15.4 28c-.266 0-.502-.17-.591-.423L5.436.852c-.115-.332.055-.696.38-.813.33-.122.687.054.802.385l8.782 25.04L24.18.425c.116-.33.473-.505.802-.385.326.117.497.48.38.813l-9.372 26.725c-.09.254-.325.423-.591.423z" transform="translate(1 1) translate(19 22)"/>
        </g>
    </g>
</svg>
