<svg xmlns="http://www.w3.org/2000/svg" width="26" height="26" viewBox="0 0 26 26">
    <g fill="none" fill-rule="evenodd" opacity=".7">
        <g fill="#FFF" fill-rule="nonzero" stroke="#FFF" stroke-width=".5">
            <g>
                <g>
                    <path d="M140.484 15.592c.85-.79 2.182-.79 3.032 0h0l1.527 1.417c.164.153.389.223.616.192h0l2.103-.285c1.17-.16 2.248.592 2.453 1.71h0l.367 2.007c.04.217.178.4.38.503h0l1.877.955c1.045.532 1.456 1.747.937 2.767h0l-.933 1.831c-.1.198-.1.424 0 .622h0l.933 1.831c.52 1.02.108 2.235-.937 2.767h0l-1.877.955c-.202.103-.34.286-.38.503h0l-.367 2.007c-.205 1.118-1.282 1.87-2.453 1.71h0l-2.103-.285c-.227-.03-.452.04-.616.192h0l-1.527 1.417c-.425.395-.97.592-1.516.592-.545 0-1.09-.197-1.516-.592h0l-1.527-1.417c-.164-.153-.389-.223-.616-.192h0l-2.103.285c-.105.015-.21.022-.312.022-1.045 0-1.955-.714-2.14-1.731h0l-.368-2.008c-.04-.217-.178-.4-.38-.503h0l-1.877-.955c-1.045-.532-1.456-1.747-.937-2.767h0l.933-1.831c.1-.198.1-.424 0-.622h0l-.933-1.83c-.52-1.02-.108-2.236.937-2.768h0l1.877-.955c.202-.103.34-.286.38-.503h0l.367-2.007c.205-1.118 1.282-1.87 2.453-1.71h0l2.103.285c.227.03.452-.039.616-.192h0zm2.029.995c-.288-.267-.738-.267-1.026 0h0l-1.527 1.417c-.486.452-1.15.659-1.82.568h0l-2.104-.286c-.396-.053-.76.2-.83.579h0l-.367 2.007c-.117.64-.527 1.182-1.125 1.487h0l-1.877.955c-.353.18-.493.591-.317.936h0l.933 1.831c.297.584.297 1.254 0 1.838h0l-.933 1.83c-.176.346-.036.757.317.937h0l1.877.955c.598.305 1.008.847 1.125 1.487h0l.367 2.007c.07.378.434.632.83.579h0l2.103-.286c.104-.014.208-.02.31-.02.562 0 1.1.206 1.511.588h0l1.527 1.417c.288.267.738.267 1.026 0h0l1.527-1.417c.486-.452 1.15-.659 1.82-.568h0l2.104.286c.396.053.76-.2.83-.579h0l.367-2.007c.117-.64.527-1.182 1.125-1.487h0l1.877-.955c.353-.18.492-.591.317-.936h0l-.933-1.831c-.298-.584-.298-1.254 0-1.838h0l.933-1.83c.175-.346.036-.757-.317-.937h0l-1.877-.955c-.598-.305-1.008-.847-1.125-1.487h0l-.367-2.007c-.07-.378-.434-.633-.83-.579h0l-2.103.286c-.67.09-1.335-.116-1.822-.568h0zm3.016 11.442c1.557 0 2.824 1.076 2.824 2.4 0 1.323-1.267 2.4-2.824 2.4-1.556 0-2.823-1.077-2.823-2.4 0-1.324 1.267-2.4 2.823-2.4zm.85-6.646c.29-.282.76-.282 1.05 0 .29.282.29.739 0 1.02h0l-9.808 9.528c-.145.141-.335.212-.525.212s-.38-.07-.525-.212c-.29-.281-.29-.739 0-1.02h0zm-.85 7.955c-.707 0-1.283.49-1.283 1.09 0 .602.576 1.091 1.283 1.091.708 0 1.284-.489 1.284-1.09 0-.602-.576-1.091-1.284-1.091zm-6.353-8.852c1.557 0 2.824 1.076 2.824 2.4 0 1.323-1.267 2.4-2.824 2.4-1.556 0-2.823-1.077-2.823-2.4 0-1.324 1.267-2.4 2.823-2.4zm0 1.309c-.707 0-1.283.49-1.283 1.09 0 .602.576 1.092 1.283 1.092.708 0 1.284-.49 1.284-1.091 0-.602-.576-1.091-1.284-1.091z" transform="translate(-161 -249) translate(22 61) translate(10 174)"/>
                </g>
            </g>
        </g>
    </g>
</svg>
