<svg xmlns="http://www.w3.org/2000/svg" width="71" height="71" viewBox="0 0 71 71">
    <g fill="none" fill-rule="evenodd">
        <path stroke="#EAB60F" stroke-dasharray="3 2" stroke-width=".5" d="M35 70c19.33 0 35-15.67 35-35S54.33 0 35 0 0 15.67 0 35s15.67 35 35 35z" transform="translate(.5 .5)"/>
        <g>
            <path fill="#F1BC14" d="M28 56c15.464 0 28-12.536 28-28S43.464 0 28 0 0 12.536 0 28s12.536 28 28 28z" transform="translate(.5 .5) translate(7 7)"/>
            <g fill="#FFF" fill-rule="nonzero">
                <path d="M4.95 8.58c.547 0 .99-.474.99-1.06V1.06C5.94.473 5.497 0 4.95 0c-.547 0-.99.474-.99 1.06v6.46c0 .586.443 1.06.99 1.06z" transform="translate(.5 .5) translate(7 7) translate(17 14)"/>
                <path d="M8.858 0c-.576 0-1.042.462-1.042 1.031v6.446c0 1.563-1.286 2.835-2.866 2.835S2.084 9.04 2.084 7.478V1.03C2.084.461 1.618 0 1.042 0 .467 0 0 .462 0 1.031v6.446c0 2.347 1.677 4.314 3.908 4.788V25.37c0 .57.466 1.031 1.042 1.031.576 0 1.042-.462 1.042-1.031V12.265C8.222 11.791 9.9 9.824 9.9 7.477V1.03C9.9.461 9.433 0 8.858 0zM21.167 2.75C20.184.978 18.877 0 17.49 0c-1.388 0-2.694.977-3.677 2.75-.797 1.439-1.273 3.205-1.273 4.727 0 2.347 1.677 4.314 3.908 4.788V25.37c0 .57.466 1.031 1.042 1.031.576 0 1.042-.462 1.042-1.031V12.265c2.23-.474 3.908-2.441 3.908-4.788 0-1.522-.476-3.288-1.273-4.726zm-3.677 7.563c-1.58 0-2.866-1.273-2.866-2.836 0-1.173.39-2.604 1.016-3.734.575-1.037 1.284-1.68 1.85-1.68.566 0 1.275.643 1.85 1.68.626 1.13 1.016 2.561 1.016 3.734 0 1.563-1.286 2.835-2.866 2.835z" transform="translate(.5 .5) translate(7 7) translate(17 14)"/>
            </g>
        </g>
    </g>
</svg>
