<svg xmlns="http://www.w3.org/2000/svg" width="72" height="72" viewBox="0 0 72 72">
    <g fill="none" fill-rule="evenodd">
        <path stroke="#911237" stroke-dasharray="3 2" stroke-width=".5" d="M35 70c19.33 0 35-15.67 35-35S54.33 0 35 0 0 15.67 0 35s15.67 35 35 35z" transform="translate(1 1)"/>
        <path fill="#911237" d="M35 63c15.464 0 28-12.536 28-28S50.464 7 35 7 7 19.536 7 35s12.536 28 28 28z" transform="translate(1 1)"/>
        <path fill="#FFF" fill-rule="nonzero" stroke="#FFF" stroke-width=".4" d="M48.995 47.047l-2.459-20.99c-.052-.44-.465-.773-.958-.773h-4.621v-.944c0-2.944-2.672-5.34-5.957-5.34-3.285 0-5.957 2.396-5.957 5.34v.944h-4.621c-.493 0-.906.334-.958.773l-2.459 20.99c-.028.243.06.486.242.668.183.181.443.285.716.285h26.074c.273 0 .533-.104.715-.285.183-.182.271-.425.243-.668zM30.969 24.34c0-1.993 1.808-3.614 4.031-3.614s4.031 1.621 4.031 3.614v.944H30.97v-.944zm-7.937 21.934L25.29 27.01h3.754v1.903c0 .476.431.863.963.863s.963-.387.963-.863V27.01h8.062v1.903c0 .476.431.863.963.863s.963-.387.963-.863V27.01h3.754l2.257 19.264H23.032z" transform="translate(1 1)"/>
    </g>
</svg>
