<svg xmlns="http://www.w3.org/2000/svg" width="72" height="72" viewBox="0 0 72 72">
    <g fill="none" fill-rule="evenodd">
        <path stroke="#5B3FCB" stroke-dasharray="3 2" stroke-width=".5" d="M35 70c19.33 0 35-15.67 35-35S54.33 0 35 0 0 15.67 0 35s15.67 35 35 35z" transform="translate(1 1)"/>
        <g>
            <path fill="#5B3FCB" d="M28 56c15.464 0 28-12.536 28-28S43.464 0 28 0 0 12.536 0 28s12.536 28 28 28z" transform="translate(1 1) translate(7 7)"/>
            <path fill="#FFF" fill-rule="nonzero" stroke="#FFF" stroke-width=".6" d="M15.835 31.72c-.277.13-.4.457-.276.737l1.265 2.716c.062.135.176.24.315.292.061.022.126.034.191.034.082 0 .162-.017.236-.05l9.558-4.465-.865 9.052c-.017.178.052.353.185.472.419.347.941.544 1.484.562.15 0 .3-.019.444-.056.776-.202 1.378-.894 1.788-2.074l3.762-11.138 7.449-3.475c2.193-1.023 3.323-3.097 2.564-4.717-.43-.846-1.256-1.422-2.199-1.535-1.047-.158-2.118.007-3.07.473l-8.596 4.03-9.242-3.614c-1.164-.439-2.086-.427-2.733.04-.542.444-.85 1.114-.838 1.815.006.178.096.343.242.445l6.224 4.278-3.565 1.687-5.976-1.519c-.245-.06-.5.05-.624.27l-1.49 2.682c-.077.142-.09.31-.033.462.056.152.174.273.326.33l4.424 1.828-.95.438zm2.575-11.182c.033-.238.153-.454.337-.607.32-.23.905-.197 1.687.095l8.23 3.21-3.755 1.755-6.5-4.453zm-5.06 8.118l.978-1.737 5.752 1.428c.124.031.254.02.37-.033l18.695-8.732c.743-.366 1.58-.5 2.4-.382.576.053 1.088.385 1.372.888.472 1.012-.455 2.49-2.024 3.222l-6.477 3.036.394-1.164c.1-.3-.063-.623-.363-.723-.3-.099-.623.064-.722.363l-4.627 13.769c-.276.781-.619 1.248-1.001 1.35-.237.045-.482-.002-.686-.13l1.124-11.807c.03-.31-.198-.586-.509-.615-.31-.03-.586.198-.615.508l-.174 1.805-9.648 4.498-.792-1.687 1.585-.742c.204-.09.335-.292.335-.514 0-.223-.131-.425-.335-.515l-5.032-2.086z" transform="translate(1 1) translate(7 7)"/>
        </g>
    </g>
</svg>
