<svg xmlns="http://www.w3.org/2000/svg" width="135" height="119" viewBox="0 0 135 119">
    <g fill="none" fill-rule="evenodd">
        <g>
            <g>
                <g transform="translate(-142 -388) translate(142 389)">
                    <g transform="translate(0 3)">
                        <path fill="#E5E5EB" fill-rule="nonzero" d="M70.5 112.674c60.616-10.958 53.347-52.122 63.655-76.674C144.462 11.448 57.168-9.559 35 13 12.832 35.559-7.56 44.118 10.299 68c17.858 23.882-.415 55.632 60.201 44.674z"/>
                        <path stroke="#8F1538" stroke-linejoin="round" d="M127.037 69.92L132.931 69.911 132.923 75.805 127.028 75.814z" opacity=".6" transform="rotate(45 129.98 72.863)"/>
                        <path stroke="#70BF47" stroke-linejoin="round" stroke-width=".8" d="M0.658 54.91L4.506 54.91 4.506 58.731 0.658 58.731z" opacity=".6"/>
                        <ellipse cx="24.709" cy="99.806" stroke="#5B45C8" stroke-linejoin="round" stroke-width=".8" opacity=".6" rx="1.924" ry="1.91"/>
                        <ellipse cx="82.367" cy="3.343" stroke="#70BF47" stroke-linejoin="round" opacity=".6" rx="3.367" ry="3.343"/>
                        <path stroke="#904800" stroke-linejoin="round" d="M126.957 37L129.895 42.89 124.001 42.898z" opacity=".6" transform="rotate(45 126.948 39.95)"/>
                        <path stroke="#6D6D6D" stroke-linejoin="round" d="M19.367 17L22.734 23.687 16 23.687z" opacity=".6"/>
                    </g>
                    <path stroke="#6D6D6D" stroke-linejoin="round" stroke-width=".8" d="M107.004 9.004L110.852 9 110.847 12.822 107 12.826z" opacity=".6" transform="rotate(9 108.926 10.913)"/>
                    <circle cx="35" cy="2" r="2" stroke="#8F1538" stroke-linejoin="round" opacity=".6"/>
                </g>
                <g fill="#E94441" fill-rule="nonzero" stroke="#E5E5EB">
                    <path stroke-width="4" d="M87.988 58.911c-.712-1.817-2.734-2.702-4.518-1.977-1.783.726-2.651 2.787-1.94 4.604.905 2.31.609 4.949-.793 7.057-1.403 2.11-3.65 3.32-6.162 3.32H14.44c-2.742 0-5.176-1.458-6.513-3.9-1.338-2.446-1.276-5.329.168-7.711l30.068-49.61c1.369-2.26 3.74-3.608 6.344-3.608s4.975 1.348 6.344 3.607L73.09 47.385c1.009 1.664 3.15 2.18 4.784 1.152 1.633-1.028 2.14-3.211 1.13-4.876L56.767 6.97C54.121 2.606 49.538 0 44.507 0s-9.614 2.606-12.26 6.97L2.18 56.58c-2.787 4.6-2.909 10.165-.325 14.887C4.437 76.184 9.142 79 14.44 79h60.135c4.856 0 9.2-2.344 11.917-6.43 2.697-4.057 3.256-9.163 1.496-13.659z" transform="translate(-142 -388) translate(142 389) translate(22 16)"/>
                    <path stroke-width="3" d="M45 64c2.21 0 4-1.79 4-4 0-2.209-1.79-4-4-4h0c-2.21 0-3.999 1.791-3.999 4 0 2.21 1.792 4 4 4H45zm4-12.422V26.423C49 24.533 47.21 23 45 23s-4 1.533-4 3.423v25.155C41 53.468 42.79 55 45 55s4-1.532 4-3.422h0z" transform="translate(-142 -388) translate(142 389) translate(22 16)"/>
                </g>
            </g>
        </g>
    </g>
</svg>
