<svg xmlns="http://www.w3.org/2000/svg" width="40" height="40" viewBox="0 0 40 40">
    <g fill="none" fill-rule="evenodd">
        <g>
            <g>
                <g>
                    <g fill="#FFF" transform="translate(-33 -471) translate(33 471)">
                        <rect width="40" height="40" rx="10"/>
                    </g>
                    <g fill-rule="nonzero" transform="translate(-33 -471) translate(33 471) translate(8 8)">
                        <circle cx="11.714" cy="11.143" r="1" fill="#6D6D6D"/>
                        <path fill="#E94441" d="M7.92 16.571h7.59c1.53 0 2.776-1.267 2.776-2.824V8.662c0-1.558-1.246-2.825-2.777-2.825h-.186v-2.24c0-1.984-1.62-3.597-3.61-3.597-1.99 0-3.61 1.613-3.61 3.597v2.24H7.92c-1.532 0-2.777 1.267-2.777 2.825v5.085c0 1.557 1.245 2.824 2.777 2.824zM9.955 3.597c0-.945.789-1.714 1.758-1.714.97 0 1.759.769 1.759 1.714v2.24H9.955v-2.24zM6.994 8.662c0-.52.415-.942.926-.942h7.59c.51 0 .925.423.925.942v5.085c0 .519-.416.941-.926.941H7.92c-.51 0-.925-.422-.925-.941V8.662z"/>
                        <circle cx="10" cy="19.143" r="1" fill="#6D6D6D"/>
                        <circle cx="6.571" cy="19.143" r="1" fill="#6D6D6D"/>
                        <path fill="#E94441" d="M21.187 14.886c-.502-.127-1.013.17-1.142.664s.173.997.674 1.124c.828.21 1.406.945 1.406 1.788v1.846c0 1.018-.841 1.846-1.875 1.846H3.75c-1.034 0-1.875-.828-1.875-1.846v-1.846c0-.813.552-1.541 1.343-1.77.497-.145.78-.658.634-1.147-.146-.49-.668-.769-1.164-.624-.76.22-1.445.686-1.926 1.31C.263 16.879 0 17.65 0 18.463v1.846C0 22.344 1.682 24 3.75 24h16.5c2.068 0 3.75-1.656 3.75-3.692v-1.846c0-1.685-1.157-3.156-2.813-3.576z"/>
                        <circle cx="14" cy="19.143" r="1" fill="#6D6D6D"/>
                        <circle cx="17.429" cy="19.143" r="1" fill="#6D6D6D"/>
                    </g>
                </g>
            </g>
        </g>
    </g>
</svg>
