<svg xmlns="http://www.w3.org/2000/svg" width="40" height="40" viewBox="0 0 40 40">
    <g fill="none" fill-rule="evenodd">
        <rect width="40" height="40" fill="#FFF" rx="10"/>
        <g>
            <path fill="#FFF" d="M0.799 10.789L3.609 10.789 3.609 7.046 19.75 0.322 23.597 9.755 21.676 11.988 21.179 23.177 0.799 23.177z" transform="translate(8 8)"/>
            <path fill="#E54444" fill-rule="nonzero" stroke="#E54444" d="M23.833 8.61L21.15 1.638C20.643.32 19.163-.336 17.845.172l-.057.023-13.4 5.554c-1.275.524-1.903 1.968-1.414 3.257l.369.984h-.845C1.118 9.99.002 11.109 0 12.487v8.991c.002 1.379 1.119 2.496 2.498 2.498H19.48c1.378-.002 2.495-1.12 2.497-2.498v-8.99c0-.136-.013-.272-.036-.405l.464-.188c1.287-.528 1.92-1.985 1.427-3.285zM2.498 10.789H19.48c.896.003 1.636.703 1.688 1.598v.898H.809v-.898c.052-.895.792-1.596 1.689-1.598zm18.68 10.69c0 .937-.76 1.696-1.697 1.698H2.498C1.56 23.175.8 22.416.799 21.478v-7.095h20.38v7.095zm.928-10.322l-.417.169c-.432-.82-1.282-1.335-2.208-1.336H4.196l-.473-1.262c-.336-.886.095-1.878.972-2.238L18.093.936c.896-.372 1.924.053 2.295.949l.017.042 2.681 6.971c.34.894-.095 1.896-.98 2.259z" transform="translate(8 8)"/>
            <path stroke="#6D6D6D" stroke-linecap="round" stroke-width="2" d="M4.2 20L9.8 20M4.2 17L9.8 17" transform="translate(8 8)"/>
        </g>
    </g>
</svg>
