<svg xmlns="http://www.w3.org/2000/svg" width="40" height="40" viewBox="0 0 40 40">
    <g fill="none" fill-rule="evenodd">
        <rect width="40" height="40" fill="#FFF" rx="10"/>
        <g transform="translate(8)">
            <g stroke-width="2">
                <path stroke="#6D6D6D" d="M4.5 9c1.105 0 2-.895 2-2s-.895-2-2-2-2 .895-2 2 .895 2 2 2z" transform="translate(1 3.55)"/>
                <path stroke="#E54444" stroke-linecap="round" stroke-linejoin="round" d="M0 14c.799-2.485 3.461-3.852 5.946-3.054C7.396 11.413 8.534 12.55 9 14h0-9z" transform="translate(1 3.55)"/>
            </g>
            <rect width="24" height="10" y="21.549" stroke="#E54444" stroke-linejoin="round" stroke-width="2" rx="5"/>
            <circle cx="6" cy="26.549" r="1" fill="#6D6D6D"/>
            <circle cx="10" cy="26.549" r="1" fill="#6D6D6D"/>
            <circle cx="14" cy="26.549" r="1" fill="#6D6D6D"/>
            <circle cx="18" cy="26.549" r="1" fill="#6D6D6D"/>
            <g stroke-linejoin="round" stroke-width="2">
                <path stroke="#6D6D6D" stroke-linecap="round" d="M2 11.385V10c.124-.828.897-1.4 1.725-1.275C4.384 8.824 4.901 9.341 5 10h0v1.667" transform="translate(14)"/>
                <path stroke="#E54444" d="M0 12.549H7V17.549H0z" transform="translate(14)"/>
            </g>
        </g>
    </g>
</svg>
