<svg xmlns="http://www.w3.org/2000/svg" width="40" height="40" viewBox="0 0 40 40">
    <g fill="none" fill-rule="evenodd">
        <rect width="40" height="40" fill="#FFF" rx="10"/>
        <g transform="translate(11 10)">
            <rect width="6" height="12" y="4" stroke="#E54444" stroke-linejoin="round" stroke-width="2" rx="1"/>
            <path fill="#FFF" stroke="#E54444" stroke-linejoin="round" stroke-width="2" d="M16.653 20H5.567c-.99 0-1.794-.803-1.794-1.793V1.793C3.773.803 4.576 0 5.567 0h5.086l7.787 7.193v11.014c0 .987-.799 1.79-1.787 1.793z"/>
            <path fill="#E54444" d="M10.666 0l7.774 7.193h-5.774c-1.104 0-2-.895-2-2V0z"/>
            <path stroke="#6D6D6D" stroke-linecap="round" stroke-linejoin="round" stroke-width="2" d="M8.054 10L10.054 10M8.054 13L14.028 13M8.054 16L14.028 16"/>
        </g>
    </g>
</svg>
