<svg xmlns="http://www.w3.org/2000/svg" width="40" height="40" viewBox="0 0 40 40">
    <g fill="none" fill-rule="evenodd">
        <rect width="40" height="40" fill="#FFF" rx="10"/>
        <g stroke-linejoin="round">
            <path fill="#E54444" stroke="#E54444" d="M11.904 13.824h-.768c-.212 0-.384.172-.384.384v2.688H1.536V1.536h9.216v2.688c0 .212.172.384.384.384h.768c.212 0 .384-.172.384-.384V1.536C12.288.688 11.6 0 10.752 0H1.536C.688 0 0 .688 0 1.536v15.36c0 .848.688 1.536 1.536 1.536h9.216c.848 0 1.536-.688 1.536-1.536v-2.688c0-.212-.172-.384-.384-.384z" transform="translate(10 11)"/>
            <path fill="#6D6D6D" stroke="#6D6D6D" d="M20.308 8.933L15.7 4.709c-.113-.103-.276-.13-.414-.068-.14.06-.23.199-.23.351v.768c0 .109.046.213.127.285l2.67 2.403H6.992c-.212 0-.384.172-.384.384V9.6c0 .212.172.384.384.384h10.86l-2.669 2.403c-.08.072-.127.176-.127.285v.768c0 .152.09.29.23.351.049.023.102.033.154.033.094 0 .187-.035.26-.1l4.608-4.225c.079-.073.124-.175.124-.283 0-.108-.045-.21-.124-.283z" transform="translate(10 11)"/>
        </g>
    </g>
</svg>
